<?xml version="1.0" standalone="no"?>
<!DOCTYPE svg PUBLIC "-//W3C//DTD SVG 20010904//EN"
 "http://www.w3.org/TR/2001/REC-SVG-20010904/DTD/svg10.dtd">
<svg version="1.0" xmlns="http://www.w3.org/2000/svg"
 width="216.000000pt" height="213.000000pt" viewBox="0 0 216.000000 213.000000"
 preserveAspectRatio="xMidYMid meet">
<metadata>
Created by potrace 1.10, written by Peter Selinger 2001-2011
</metadata>
<g transform="translate(0.000000,213.000000) scale(0.100000,-0.100000)"
fill="#000000" stroke="none">
<path d="M1096 2058 c6 -23 268 -294 434 -452 47 -44 117 -113 157 -152 39
-40 81 -75 92 -79 12 -3 21 -12 21 -19 0 -16 76 -87 84 -79 3 4 6 1 6 -6 0
-17 91 -112 101 -106 4 3 15 -7 23 -22 8 -15 23 -38 34 -49 l20 -21 -39 -29
c-21 -16 -41 -36 -44 -45 -3 -9 -31 -41 -62 -70 -31 -30 -75 -72 -98 -94 -22
-22 -54 -52 -71 -66 -51 -46 -314 -316 -314 -324 0 -12 -133 -135 -152 -141
-11 -3 -17 -12 -14 -19 2 -7 -6 -21 -20 -30 -30 -19 -81 -72 -132 -137 -20
-26 -40 -47 -44 -48 -4 0 -10 11 -14 24 -3 13 -15 27 -27 30 -28 7 -79 54 -72
66 3 5 -4 11 -15 15 -11 3 -20 11 -20 16 0 5 -16 19 -35 30 -19 12 -32 25 -29
30 3 5 -1 6 -9 3 -8 -3 -20 2 -27 11 -10 12 -10 15 1 15 7 0 -3 14 -23 30 -60
50 -188 179 -188 191 0 6 -9 8 -19 4 -11 -3 -22 -1 -26 5 -3 5 -1 10 4 10 6 0
11 5 11 10 0 6 -5 10 -12 10 -17 0 -132 123 -130 138 2 6 -4 12 -12 12 -10 0
-13 -6 -9 -17 4 -11 3 -14 -5 -9 -7 4 -12 16 -12 27 0 10 -7 19 -15 19 -8 0
-15 8 -15 18 -1 25 -35 68 -44 54 -9 -14 -46 7 -46 25 0 7 -13 25 -30 40 -16
14 -30 33 -30 42 -1 13 -4 12 -16 -4 -15 -20 -15 -20 -35 4 -14 17 -16 26 -8
31 7 5 -5 18 -31 36 -23 16 -54 39 -68 51 l-27 22 42 36 c24 20 43 42 43 49 0
16 34 56 48 56 6 0 13 9 17 20 3 11 18 26 33 33 15 7 26 20 24 28 -2 8 0 11 4
6 9 -9 74 51 74 69 0 7 23 32 51 57 39 35 50 50 45 64 -6 15 -13 12 -47 -27
-22 -25 -47 -56 -55 -70 -18 -27 -98 -90 -115 -90 -6 0 -9 -6 -6 -12 2 -7 -43
-60 -101 -117 l-104 -103 67 -68 c37 -38 85 -81 107 -97 22 -15 54 -44 71 -63
42 -45 170 -170 175 -170 11 0 451 -440 464 -465 5 -8 18 -15 28 -15 14 0 18
-5 13 -16 -4 -11 -2 -15 6 -13 6 2 42 -24 79 -58 37 -35 69 -63 72 -63 7 0 90
78 90 85 0 11 66 65 88 71 12 3 22 12 22 20 0 8 6 14 13 14 7 0 21 14 30 30
10 17 22 30 28 30 5 0 9 4 9 10 0 5 126 135 280 288 193 193 280 286 280 301
0 12 6 21 15 21 8 0 56 40 107 89 l93 89 -103 101 c-57 56 -106 101 -110 101
-4 0 -53 46 -108 103 -290 292 -354 356 -523 520 -100 97 -187 177 -192 177
-6 0 -7 -9 -3 -22z"/>
<path d="M872 1943 c-18 -20 -30 -43 -28 -50 8 -21 26 -15 36 11 5 14 21 32
34 42 14 9 23 20 20 25 -10 17 -29 8 -62 -28z"/>
<path d="M782 1874 c-7 -8 -10 -19 -7 -24 10 -16 34 -11 44 9 17 31 -12 43
-37 15z"/>
<path d="M665 1730 c-8 -12 20 -24 35 -15 6 3 8 11 5 16 -8 12 -32 12 -40 -1z"/>
<path d="M572 1668 c-11 -11 -17 -48 -8 -48 3 0 16 4 30 10 28 10 35 30 12 30
-8 0 -16 5 -18 10 -2 7 -8 6 -16 -2z"/>
<path d="M475 1550 c-10 -11 -15 -23 -12 -27 4 -3 2 -12 -5 -20 -20 -24 1 -27
27 -3 25 23 33 54 16 64 -4 3 -16 -3 -26 -14z"/>
</g>
</svg>
