<svg id="svg" version="1.1" xmlns="http://www.w3.org/2000/svg" xmlns:xlink="http://www.w3.org/1999/xlink" width="400" height="400" viewBox="0, 0, 400,400"><g id="svgg"><path id="path0" d="M159.451 1.259 C 117.109 8.355,83.902 40.377,72.653 84.961 C 71.886 88.000,71.602 88.282,69.306 88.293 C 62.508 88.324,50.004 92.662,40.342 98.342 C 2.543 120.561,-7.784 172.798,18.601 208.319 C 30.586 224.453,48.046 234.931,67.944 237.931 C 80.254 239.786,193.122 239.579,196.819 237.694 C 204.305 233.877,204.887 223.552,197.876 218.956 C 195.924 217.677,191.245 217.550,132.457 217.188 L 69.141 216.797 62.891 214.591 C 31.402 203.477,16.783 169.639,30.768 140.234 C 44.156 112.085,77.414 101.188,105.059 115.895 C 114.515 120.925,118.769 121.146,123.082 116.832 C 131.922 107.993,122.158 96.694,100.268 90.432 L 93.896 88.609 96.056 81.891 C 122.800 -1.272,240.778 2.931,262.483 87.820 C 264.670 96.377,264.709 96.239,259.078 99.881 C 243.038 110.254,254.465 127.985,270.843 118.135 C 303.180 98.686,341.276 112.916,352.422 148.608 C 355.566 158.676,359.107 161.819,366.037 160.695 C 376.693 158.966,377.469 147.781,368.215 129.297 C 353.554 100.012,323.858 84.681,288.772 88.281 L 284.965 88.672 283.252 81.641 C 269.932 26.954,215.811 -8.186,159.451 1.259 M256.793 178.940 C 243.723 186.019,245.108 215.737,258.775 221.447 C 274.931 228.198,288.354 205.708,279.554 186.635 C 275.611 178.091,264.991 174.501,256.793 178.940 M366.016 178.253 C 353.698 185.049,352.399 211.770,363.990 219.922 C 379.229 230.640,395.040 211.245,388.738 189.564 C 385.865 179.683,374.068 173.811,366.016 178.253 M223.828 182.876 C 220.391 185.466,217.272 187.889,216.899 188.261 C 216.170 188.986,220.864 196.094,222.071 196.094 C 222.463 196.094,224.337 194.821,226.236 193.265 L 229.688 190.437 229.688 205.765 L 229.688 221.094 235.156 221.094 L 240.625 221.094 240.625 199.609 L 240.625 178.125 235.352 178.145 C 230.127 178.166,230.020 178.209,223.828 182.876 M331.817 183.008 C 323.781 188.930,324.096 188.311,326.953 192.568 C 329.736 196.713,330.113 196.782,333.623 193.782 C 335.111 192.510,336.592 191.455,336.914 191.438 C 337.236 191.421,337.500 198.086,337.500 206.250 L 337.500 221.094 342.969 221.094 L 348.438 221.094 348.438 199.609 L 348.438 178.125 343.440 178.125 C 338.537 178.125,338.316 178.218,331.817 183.008 M266.954 187.112 C 272.289 190.849,271.752 209.465,266.211 212.833 C 259.595 216.855,256.187 193.813,262.469 187.531 C 264.374 185.626,264.778 185.588,266.954 187.112 M377.148 189.641 C 378.896 192.308,379.084 205.292,377.432 209.210 C 374.196 216.880,368.203 212.974,367.375 202.654 C 366.307 189.356,371.997 181.781,377.148 189.641 M330.957 244.898 C 315.105 250.548,315.740 284.552,331.781 289.006 C 344.720 292.599,353.238 283.724,353.192 266.696 C 353.146 249.464,343.814 240.315,330.957 244.898 M223.379 249.667 C 220.189 252.063,217.063 254.317,216.432 254.676 C 215.123 255.423,215.856 257.220,219.117 261.252 L 220.951 263.519 224.929 260.599 L 228.906 257.679 228.906 272.980 L 228.906 288.281 233.984 288.281 L 239.063 288.281 239.063 266.797 L 239.063 245.313 234.122 245.313 C 229.339 245.313,228.995 245.452,223.379 249.667 M257.813 250.393 C 250.638 255.839,250.632 255.854,253.755 260.271 C 256.342 263.931,256.366 263.931,260.611 260.453 L 264.063 257.624 264.063 272.953 L 264.063 288.281 269.531 288.281 L 275.000 288.281 275.000 266.797 L 275.000 245.313 269.727 245.332 C 264.458 245.352,264.447 245.357,257.813 250.393 M292.778 250.498 C 285.275 256.090,285.361 255.802,289.688 260.919 L 291.985 263.635 295.602 260.671 L 299.219 257.708 299.219 272.995 L 299.219 288.281 304.688 288.281 L 310.156 288.281 310.156 266.797 L 310.156 245.313 304.883 245.360 C 299.637 245.407,299.573 245.434,292.778 250.498 M338.239 253.883 C 343.573 256.738,343.457 276.918,338.090 279.790 C 331.171 283.493,327.435 261.778,333.805 254.883 C 335.619 252.919,336.195 252.789,338.239 253.883 M217.969 305.605 C 210.487 310.632,209.583 326.955,216.408 333.780 C 221.766 339.137,231.550 337.526,234.762 330.756 C 242.010 315.487,230.009 297.515,217.969 305.605 M271.094 304.416 C 261.662 308.200,260.556 330.121,269.530 335.422 C 279.122 341.088,287.903 333.854,287.871 320.313 C 287.841 307.712,280.416 300.677,271.094 304.416 M355.796 304.621 C 346.996 308.409,345.952 329.999,354.318 335.170 C 365.934 342.348,376.968 328.949,372.395 313.219 C 370.204 305.684,362.543 301.716,355.796 304.621 M244.368 308.484 L 239.160 312.281 241.093 315.125 C 243.394 318.511,243.301 318.497,246.606 315.976 L 249.219 313.983 249.219 324.960 L 249.219 335.938 253.125 335.938 L 257.031 335.938 257.031 320.313 L 257.031 304.688 253.304 304.688 C 250.080 304.688,248.872 305.201,244.368 308.484 M295.786 308.206 C 293.253 310.119,291.005 311.859,290.790 312.074 C 290.347 312.518,293.883 317.955,294.621 317.963 C 294.886 317.966,295.996 317.266,297.088 316.406 C 300.029 314.093,300.000 314.003,300.000 325.391 L 300.000 335.938 303.906 335.938 L 307.813 335.938 307.813 320.313 L 307.813 304.688 304.102 304.708 C 300.936 304.726,299.713 305.241,295.786 308.206 M380.942 308.206 C 378.409 310.119,376.161 311.859,375.947 312.074 C 375.503 312.518,379.040 317.955,379.777 317.963 C 380.042 317.966,381.152 317.266,382.244 316.406 C 385.185 314.093,385.156 314.003,385.156 325.391 L 385.156 335.938 389.063 335.938 L 392.969 335.938 392.969 320.313 L 392.969 304.688 389.258 304.708 C 386.093 304.726,384.870 305.241,380.942 308.206 M226.909 312.674 C 229.950 317.016,227.929 329.688,224.195 329.688 C 221.939 329.688,220.313 325.758,220.313 320.313 C 220.313 312.402,223.850 308.306,226.909 312.674 M278.680 313.281 C 281.293 318.465,279.332 329.297,275.781 329.297 C 272.875 329.297,271.778 326.408,272.041 319.456 C 272.352 311.272,275.970 307.906,278.680 313.281 M363.836 313.281 C 366.449 318.465,364.489 329.297,360.938 329.297 C 358.032 329.297,356.934 326.408,357.197 319.456 C 357.508 311.272,361.126 307.906,363.836 313.281 M330.078 340.600 C 318.907 343.149,316.446 364.941,326.563 371.739 C 333.269 376.245,341.814 372.571,344.270 364.125 C 348.307 350.236,340.993 338.110,330.078 340.600 M380.601 340.661 C 366.335 343.806,369.050 373.423,383.606 373.435 C 392.184 373.442,395.703 368.556,395.703 356.641 C 395.703 343.898,390.567 338.464,380.601 340.661 M352.500 344.931 C 346.912 348.997,347.044 348.660,349.679 352.114 L 351.702 354.766 354.367 352.734 L 357.031 350.702 357.031 361.679 L 357.031 372.656 361.328 372.656 L 365.625 372.656 365.625 357.031 L 365.625 341.406 361.484 341.406 C 357.812 341.406,356.796 341.805,352.500 344.931 M334.828 348.507 C 336.904 350.800,337.392 360.494,335.606 363.947 C 332.521 369.914,328.569 365.023,329.034 355.813 C 329.302 350.503,330.835 346.875,332.813 346.875 C 333.109 346.875,334.016 347.609,334.828 348.507 M386.530 349.207 C 389.146 353.396,388.164 363.936,384.972 365.929 C 380.210 368.901,377.550 352.918,382.057 348.412 C 383.747 346.722,385.132 346.968,386.530 349.207 M218.220 350.479 C 213.695 352.710,211.762 361.259,214.371 367.501 C 217.308 374.532,227.056 374.501,229.735 367.452 C 233.734 356.936,226.562 346.365,218.220 350.479 M236.675 352.006 C 235.195 353.109,233.480 354.302,232.863 354.657 C 231.906 355.208,231.937 355.600,233.077 357.338 C 234.628 359.706,235.655 359.873,237.634 358.082 C 239.009 356.838,239.063 357.074,239.063 364.332 L 239.063 371.875 241.797 371.875 L 244.531 371.875 244.531 360.938 L 244.531 350.000 241.949 350.000 C 240.395 350.000,238.294 350.799,236.675 352.006 M224.101 357.357 C 225.331 359.882,224.721 365.798,223.091 367.151 C 221.245 368.683,219.531 366.017,219.531 361.612 C 219.531 354.967,221.874 352.786,224.101 357.357 M280.273 378.188 C 274.962 381.281,275.071 396.330,280.425 399.196 C 288.263 403.390,295.164 395.840,293.344 385.064 C 292.280 378.767,285.449 375.173,280.273 378.188 M299.000 379.883 C 294.888 382.726,294.817 382.892,296.555 385.546 C 297.732 387.342,297.899 387.377,299.680 386.210 L 301.563 384.977 301.563 392.488 L 301.563 400.000 304.688 400.000 L 307.813 400.000 307.813 388.672 L 307.813 377.344 305.242 377.344 C 303.616 377.344,301.322 378.277,299.000 379.883 M286.691 383.542 C 287.876 385.755,287.678 392.430,286.376 394.187 C 284.470 396.758,282.422 393.950,282.422 388.764 C 282.422 383.126,284.867 380.135,286.691 383.542 " stroke="none" fill="#000000" fill-rule="evenodd"></path></g></svg>